<svg viewBox="0 0 335 96" version="1.1"
    xmlns="http://www.w3.org/2000/svg"
    xmlns:xlink="http://www.w3.org/1999/xlink" xml:space="preserve"
    xmlns:serif="http://www.serif.com/" style="fill-rule:evenodd;clip-rule:evenodd;stroke-linejoin:round;stroke-miterlimit:2;">
    <g transform="matrix(1,0,0,1,-3190.46,-69.301)">
        <g transform="matrix(0.926013,0,0,0.926013,864.444,-534.113)">
            <g transform="matrix(4.98707,0,0,4.98707,-1913.42,-10.5689)">
                <g>
                    <g transform="matrix(1,0,0,1,902.012,153.156)">
                        <g transform="matrix(27.532,0,0,27.532,0,0)">
                            <rect x="0.069" y="-0.74" width="0.14" height="0.74" style="fill:#007DBC;fill-rule:nonzero;"/>
                        </g>
                    </g>
                    <g transform="matrix(1,0,0,1,908.813,153.156)">
                        <g transform="matrix(27.532,0,0,27.532,0,0)">
                            <path d="M0.033,-0.279C0.033,-0.335 0.044,-0.385 0.067,-0.428C0.089,-0.471 0.119,-0.505 0.158,-0.528C0.196,-0.551 0.239,-0.563 0.286,-0.563C0.327,-0.563 0.364,-0.555 0.395,-0.538C0.426,-0.521 0.45,-0.5 0.469,-0.475L0.469,-0.554L0.61,-0.554L0.61,-0L0.469,-0L0.469,-0.081C0.451,-0.055 0.426,-0.034 0.395,-0.017C0.363,0.001 0.326,0.009 0.285,0.009C0.238,0.009 0.196,-0.003 0.158,-0.027C0.119,-0.051 0.089,-0.085 0.067,-0.129C0.044,-0.172 0.033,-0.222 0.033,-0.279ZM0.469,-0.277C0.469,-0.311 0.462,-0.34 0.449,-0.365C0.436,-0.389 0.418,-0.408 0.395,-0.421C0.372,-0.434 0.348,-0.44 0.322,-0.44C0.296,-0.44 0.272,-0.434 0.25,-0.421C0.228,-0.408 0.21,-0.39 0.197,-0.366C0.183,-0.341 0.176,-0.312 0.176,-0.279C0.176,-0.246 0.183,-0.217 0.197,-0.192C0.21,-0.167 0.228,-0.147 0.251,-0.134C0.273,-0.121 0.297,-0.114 0.322,-0.114C0.348,-0.114 0.372,-0.121 0.395,-0.134C0.418,-0.147 0.436,-0.165 0.449,-0.19C0.462,-0.214 0.469,-0.243 0.469,-0.277Z" style="fill:#007DBC;fill-rule:nonzero;"/>
                        </g>
                        <g transform="matrix(27.532,0,0,27.532,18.6667,0)">
                            <path d="M0.209,-0.473C0.227,-0.5 0.252,-0.521 0.284,-0.538C0.315,-0.555 0.351,-0.563 0.392,-0.563C0.439,-0.563 0.482,-0.551 0.521,-0.528C0.559,-0.505 0.589,-0.471 0.612,-0.429C0.634,-0.385 0.645,-0.336 0.645,-0.279C0.645,-0.222 0.634,-0.172 0.612,-0.129C0.589,-0.085 0.559,-0.051 0.521,-0.027C0.482,-0.003 0.439,0.009 0.392,0.009C0.351,0.009 0.315,0.001 0.284,-0.016C0.253,-0.032 0.228,-0.053 0.209,-0.079L0.209,-0L0.069,-0L0.069,-0.74L0.209,-0.74L0.209,-0.473ZM0.502,-0.279C0.502,-0.312 0.495,-0.341 0.482,-0.366C0.468,-0.39 0.45,-0.408 0.428,-0.421C0.405,-0.434 0.381,-0.44 0.355,-0.44C0.33,-0.44 0.306,-0.434 0.284,-0.421C0.261,-0.408 0.243,-0.389 0.23,-0.364C0.216,-0.339 0.209,-0.31 0.209,-0.277C0.209,-0.244 0.216,-0.215 0.23,-0.19C0.243,-0.165 0.261,-0.147 0.284,-0.134C0.306,-0.121 0.33,-0.114 0.355,-0.114C0.381,-0.114 0.405,-0.121 0.428,-0.134C0.45,-0.147 0.468,-0.166 0.482,-0.191C0.495,-0.216 0.502,-0.245 0.502,-0.279Z" style="fill:#007DBC;fill-rule:nonzero;"/>
                        </g>
                        <g transform="matrix(27.532,0,0,27.532,37.3334,0)">
                            <path d="M0.281,0.009C0.236,0.009 0.195,0.001 0.159,-0.016C0.123,-0.032 0.094,-0.054 0.074,-0.082C0.053,-0.11 0.041,-0.141 0.039,-0.175L0.18,-0.175C0.183,-0.154 0.193,-0.136 0.212,-0.122C0.23,-0.108 0.253,-0.101 0.28,-0.101C0.307,-0.101 0.328,-0.106 0.343,-0.117C0.358,-0.128 0.365,-0.141 0.365,-0.158C0.365,-0.176 0.356,-0.19 0.338,-0.199C0.319,-0.208 0.29,-0.217 0.25,-0.228C0.209,-0.238 0.175,-0.248 0.149,-0.259C0.122,-0.27 0.099,-0.286 0.081,-0.308C0.062,-0.33 0.052,-0.36 0.052,-0.397C0.052,-0.428 0.061,-0.456 0.079,-0.481C0.096,-0.506 0.122,-0.526 0.155,-0.541C0.188,-0.556 0.226,-0.563 0.271,-0.563C0.337,-0.563 0.39,-0.547 0.429,-0.514C0.468,-0.481 0.49,-0.436 0.494,-0.38L0.36,-0.38C0.358,-0.402 0.349,-0.42 0.333,-0.433C0.316,-0.446 0.294,-0.452 0.267,-0.452C0.242,-0.452 0.222,-0.447 0.209,-0.438C0.195,-0.429 0.188,-0.416 0.188,-0.399C0.188,-0.38 0.197,-0.366 0.216,-0.357C0.235,-0.347 0.264,-0.337 0.303,-0.327C0.343,-0.317 0.376,-0.307 0.402,-0.296C0.428,-0.285 0.451,-0.269 0.47,-0.247C0.489,-0.224 0.498,-0.195 0.499,-0.158C0.499,-0.126 0.49,-0.097 0.473,-0.072C0.455,-0.047 0.43,-0.027 0.397,-0.013C0.364,0.002 0.325,0.009 0.281,0.009Z" style="fill:#007DBC;fill-rule:nonzero;"/>
                        </g>
                    </g>
                </g>
            </g>
        </g>
        <g transform="matrix(0.926013,0,0,0.926013,864.444,-534.113)">
            <g transform="matrix(1.39786,0,0,1.35527,1776.31,482.871)">
                <g id="_3" serif:id="3">
                    <g transform="matrix(0.969407,0,0,0.969407,19.5853,-63.1565)">
                        <path d="M535.631,245.705C535.631,252.898 541.471,258.738 548.664,258.738C555.857,258.738 561.697,252.898 561.697,245.705L574.729,245.705C574.729,260.091 563.05,271.771 548.664,271.771C534.278,271.771 522.598,260.091 522.598,245.705L535.631,245.705Z" style="fill:#007DBC;"/>
                    </g>
                    <path d="M575.813,139.831L573.962,139.831L545.538,163.758L553.345,173.031L575.813,154.117L575.813,139.831Z" style="fill:#007DBC;"/>
                    <rect x="528.262" y="139.831" width="47.551" height="12.122" style="fill:#007DBC;"/>
                </g>
            </g>
        </g>
    </g>
</svg>
