<svg width="18" height="20" viewBox="0 0 18 20" fill="none" xmlns="http://www.w3.org/2000/svg">
<path fill-rule="evenodd" clip-rule="evenodd" d="M2.13153 11.5156C3.30875 11.5156 4.22048 12.5327 4.81456 13.549C5.54714 14.8023 6.93551 15.6488 8.52615 15.6488C10.1169 15.6488 11.5053 14.8023 12.2378 13.5489C12.8318 12.5326 13.7435 11.5156 14.9206 11.5156C16.0977 11.5156 17.0805 12.4866 16.7721 13.6226C15.8102 17.1657 12.4809 19.782 8.52615 19.782C4.57147 19.782 1.24196 17.1658 0.279975 13.6227C-0.0284842 12.4866 0.95432 11.5156 2.13153 11.5156Z" fill="white"/>
<path fill-rule="evenodd" clip-rule="evenodd" d="M16.7423 0.460506C16.7423 0.206175 16.5361 0 16.2818 0C16.1757 0 16.0728 0.0366445 15.9906 0.103737L8.1307 6.51851C7.25296 7.23487 7.14136 8.53513 7.8842 9.39058C8.59562 10.2099 9.82924 10.3157 10.6699 9.62964L15.5769 5.62464C16.3144 5.02274 16.7423 4.12123 16.7423 3.16931V0.460506Z" fill="white"/>
<path d="M14.7587 0L2.67957 0C1.58451 0 0.696777 0.887727 0.696777 1.9828C0.696777 3.07786 1.58451 3.96559 2.67957 3.96559L14.7587 3.96559C15.8538 3.96559 16.7415 3.07786 16.7415 1.9828C16.7415 0.887727 15.8538 0 14.7587 0Z" fill="white"/>
</svg>
